# xmcd
#
# Track frame offsets: 
#        150
#        22839
#        42965
#        59082
#        76376
#        95648
#        113346
#        137014
#
# Disc length: 2055 seconds
#
# Revision: 0
# Processed by: cddbd v1.5.2PL0 Copyright (c) Steve Scherf et al.
# Submitted via: ExactAudioCopyFreeDBPlugin 1.0
#
DISCID=5f080508
DTITLE=Blue Shade - Based On Blue Story
DYEAR=1900
DGENRE=
TTITLE0=อยากเจอ
TTITLE1=ความรักที่ดีที่สุด
TTITLE2=ข้อห้าม(ของความเป็นเพื่อน)
TTITLE3=ฉันเลือกเอง
TTITLE4=ดวงจันทร์
TTITLE5=ร้อนนี้มีลุ้น
TTITLE6=ถ้าเรายังคิดถึงกัน
TTITLE7=ไม่เคยจากไปจริงๆ
EXTD=
EXTT0=
EXTT1=
EXTT2=
EXTT3=
EXTT4=
EXTT5=
EXTT6=
EXTT7=
PLAYORDER=
